<svg viewBox="0 0 24 24"><path d="M23.977 6.417c-.105 2.338-1.739 5.543-4.894 9.609-3.268 4.247-6.026 6.37-8.29 6.37-1.409 0-2.578-1.294-3.553-3.881l-1.918-7.114C4.603 8.817 3.834 7.523 3.01 7.523c-.179 0-.806.378-1.881 1.132L0 7.198A315.06 315.06 0 0 0 3.501 4.07C5.08 2.702 6.266 1.985 7.055 1.911c1.867-.18 3.016 1.1 3.447 3.838.465 2.953.789 4.789.971 5.507.539 2.45 1.131 3.674 1.776 3.674.502 0 1.256-.796 2.265-2.385s1.54-2.797 1.612-3.628c.144-1.371-.395-2.061-1.614-2.061-.574 0-1.167.121-1.777.391 1.186-3.868 3.434-5.757 6.762-5.637 2.473.06 3.628 1.664 3.493 4.797z"/></svg>